<svg xmlns="http://www.w3.org/2000/svg" viewBox="0 0 960 560.92"><defs><style>.cls-1{fill:#fff;}.cls-2{fill:#00cecb;}.cls-3{fill:#5a189a;}.cls-4{fill:#004f2d;}.cls-5{fill:#ff206e;}</style></defs><title>DesktopBG</title><g id="Layer_2" data-name="Layer 2"><g id="Layer_1-2" data-name="Layer 1"><rect class="cls-1" width="960" height="560"/><path class="cls-2" d="M9.3,210.54A42.18,42.18,0,0,0,3,211v21.93A21.16,21.16,0,0,1,9.3,232a21.45,21.45,0,1,1,0,42.9,20.85,20.85,0,0,1-6.3-.95v21.93a42.18,42.18,0,0,0,6.3.47,42.9,42.9,0,1,0,0-85.8Z"/><rect class="cls-3" x="797.16" y="175" width="46.8" height="156" rx="23.4" ry="23.4"/><rect class="cls-3" x="741" y="229.6" width="156" height="46.8" rx="23.4" ry="23.4"/><path class="cls-4" d="M655.63,164.57l-16.55,13.88a4.21,4.21,0,0,0-.51,5.92l13.88,16.55a4.21,4.21,0,0,0,5.92.51l16.55-13.88a4.21,4.21,0,0,0,.51-5.92l-13.88-16.55A4.21,4.21,0,0,0,655.63,164.57Zm14.24,19.77-13.79,11.57-11.57-13.79,13.79-11.57Z"/><path class="cls-5" d="M693.5,327.58A143,143,0,0,0,582.66,560.92H804.34A143,143,0,0,0,693.5,327.58Zm0,214.5a71.5,71.5,0,1,1,71.5-71.5A71.5,71.5,0,0,1,693.5,542.08Z"/><polygon class="cls-2" points="880 461.84 888.82 457.21 887.13 467.02 894.27 473.98 884.41 475.41 880 484.34 875.59 475.41 865.73 473.98 872.87 467.02 871.18 457.21 880 461.84"/></g></g></svg>