<svg xmlns="http://www.w3.org/2000/svg" viewBox="0 0 400 700"><defs><style>.cls-1{fill:#f0e6ef;}.cls-2{fill:#5a189a;}.cls-3{fill:#004f2d;}.cls-4{fill:#840032;}.cls-5{fill:#ff206e;}.cls-6{fill:#00cecb;}</style></defs><title>mobileBg</title><g id="Layer_2" data-name="Layer 2"><g id="Layer_1-2" data-name="Layer 1"><g id="mobile_BG" data-name="mobile BG"><rect class="cls-1" width="400" height="700"/><rect class="cls-2" x="329" y="410" width="17" height="56" rx="8.42" ry="8.42"/><rect class="cls-2" x="309" y="429" width="56" height="17" rx="8.42" ry="8.42"/><path class="cls-3" d="M357.18,112.94l-9.93,8.33a2.53,2.53,0,0,0-.31,3.55l8.33,9.93a2.53,2.53,0,0,0,3.55.31l9.93-8.33a2.53,2.53,0,0,0,.31-3.55l-8.33-9.93A2.53,2.53,0,0,0,357.18,112.94Zm8.54,11.86-8.27,7-6.94-8.28,8.27-6.94Z"/><polygon class="cls-4" points="348.22 667.93 346.59 652.43 333.98 661.59 348.22 667.93"/><path class="cls-5" d="M292.3,558.15A66,66,0,0,0,400,609.31V507a66,66,0,0,0-107.7,51.16Zm99,0a33,33,0,1,1-33-33A33,33,0,0,1,391.3,558.15Z"/><path class="cls-6" d="M2.91,238.64a18.63,18.63,0,0,0-2.91.22V249a9.67,9.67,0,0,1,2.91-.44,9.9,9.9,0,1,1,0,19.8A9.67,9.67,0,0,1,0,267.9V278a18.63,18.63,0,0,0,2.91.22,19.8,19.8,0,0,0,0-39.6Z"/><polygon class="cls-6" points="374 88.42 379.29 85.63 378.28 91.53 382.56 95.7 376.64 96.56 374 101.92 371.36 96.56 365.44 95.7 369.72 91.53 368.71 85.63 374 88.42"/></g></g></g></svg>